# xmcd
#
# Track frame offsets:
#	150
#	11735
#	24926
#	38634
#	54617
#	66309
#	83856
#	95984
#	108697
#	120985
#	130946
#	142700
#	160694
#	170047
#	182627
#	196259
#
# Disc length: 2766 seconds
#
# Revision: 1
# Processed by: cddbd v1.5.1PL2 Copyright (c) Steve Scherf et al.
# Submitted via: audiograbber 1.83.01
#
DISCID=d50acc10
DTITLE=Kenneth Spencer - Unvergessen - 
DYEAR=1900
DGENRE=
TTITLE0=Go Man Go
TTITLE1=Sommerzeit Summertime
TTITLE2=Hold On
TTITLE3=Gesang der Wolgaschiffer
TTITLE4=Auf dem Weg nach Haus
TTITLE5=Carry Me Back To old Virginny
TTITLE6=Meines Groﬂvaters Uhr
TTITLE7=Schlafe Bambino
TTITLE8=Missisippi Blues
TTITLE9=What Shall We Do With The Drunken Sailor
TTITLE10=Wo die weiﬂen Tannen stehn
TTITLE11=Abends am Missouri
TTITLE12=Oh Susanna
TTITLE13=Ein Kind geht in den Garten
TTITLE14=Wenn die Garben stehn auf den Feldern
TTITLE15=Goodnight Sweetheart
EXTD=Schallplatte
EXTT0=
EXTT1=
EXTT2=
EXTT3=
EXTT4=
EXTT5=
EXTT6=
EXTT7=
EXTT8=
EXTT9=
EXTT10=
EXTT11=
EXTT12=
EXTT13=
EXTT14=
EXTT15=
PLAYORDER=
